<?xml version="1.0" standalone="no"?>
<!DOCTYPE svg PUBLIC "-//W3C//DTD SVG 20010904//EN"
 "http://www.w3.org/TR/2001/REC-SVG-20010904/DTD/svg10.dtd">
<svg version="1.0" xmlns="http://www.w3.org/2000/svg"
 width="512.000000pt" height="512.000000pt" viewBox="0 0 512.000000 512.000000"
 preserveAspectRatio="xMidYMid meet">

<g transform="translate(0.000000,512.000000) scale(0.100000,-0.100000)"
fill="#000000" stroke="none">
<path d="M3710 5114 c-14 -2 -56 -9 -95 -15 -155 -25 -342 -100 -490 -198 -86
-56 -478 -439 -508 -496 -30 -56 -30 -164 0 -221 30 -57 103 -119 158 -134 55
-15 140 -8 186 16 19 9 120 101 224 204 205 202 270 249 405 295 282 96 580
26 791 -184 214 -215 282 -519 178 -806 -56 -155 -83 -186 -696 -796 -476
-475 -580 -573 -640 -609 -296 -173 -649 -137 -910 91 -82 73 -138 99 -208 99
-194 0 -318 -218 -220 -385 32 -56 181 -181 294 -249 314 -186 713 -227 1061
-109 100 34 249 111 335 173 89 64 1216 1189 1292 1288 250 332 320 798 178
1192 -97 267 -289 505 -530 657 -113 71 -261 131 -405 164 -81 19 -340 34
-400 23z"/>
<path d="M2180 3589 c-185 -20 -381 -88 -548 -190 -78 -48 -156 -123 -723
-689 -662 -660 -688 -689 -771 -855 -211 -420 -175 -919 95 -1309 30 -43 94
-119 143 -168 434 -436 1111 -501 1622 -156 74 50 366 318 463 426 69 76 89
121 89 202 0 147 -108 255 -255 254 -94 -1 -128 -25 -350 -243 -214 -211 -269
-252 -405 -301 -396 -145 -835 60 -980 460 -62 169 -62 351 0 520 57 158 64
165 674 778 314 316 598 593 631 617 74 53 141 87 231 117 60 20 88 23 224 23
144 0 161 -2 235 -28 100 -35 191 -89 275 -162 83 -73 135 -97 212 -97 117 0
210 71 244 189 19 67 11 124 -27 191 -65 114 -309 282 -517 356 -160 57 -390
84 -562 65z"/>
</g>
</svg>
