<?xml version="1.0" standalone="no"?>
<!DOCTYPE svg PUBLIC "-//W3C//DTD SVG 20010904//EN"
 "http://www.w3.org/TR/2001/REC-SVG-20010904/DTD/svg10.dtd">
<svg version="1.0" xmlns="http://www.w3.org/2000/svg"
 width="128.000000pt" height="128.000000pt" viewBox="0 0 128.000000 128.000000"
 preserveAspectRatio="xMidYMid meet">

<g transform="translate(0.000000,128.000000) scale(0.100000,-0.100000)"
fill="#000000" stroke="none">
<path d="M424 1219 c-63 -18 -117 -109 -81 -136 30 -24 48 -22 81 7 l34 30
319 0 c235 0 322 -3 331 -12 9 -9 12 -97 12 -333 l0 -322 -25 -23 c-58 -54 -1
-130 62 -84 15 11 36 33 47 48 20 27 21 40 21 379 0 391 2 379 -69 430 -30 22
-37 22 -366 24 -185 1 -349 -2 -366 -8z"/>
<path d="M145 946 c-45 -20 -83 -70 -90 -119 -3 -23 -5 -184 -3 -357 4 -448
-32 -415 455 -415 341 0 352 1 380 21 15 11 38 36 51 54 22 33 22 37 22 372 0
376 -2 386 -64 431 -30 22 -37 22 -376 24 -272 2 -351 0 -375 -11z m703 -430
c2 -234 -1 -333 -9 -342 -16 -19 -648 -21 -667 -2 -17 17 -17 649 0 666 9 9
94 12 343 10 l330 -3 3 -329z"/>
</g>
</svg>
