<?xml version="1.0" standalone="no"?>
<!DOCTYPE svg PUBLIC "-//W3C//DTD SVG 20010904//EN"
 "http://www.w3.org/TR/2001/REC-SVG-20010904/DTD/svg10.dtd">
<svg version="1.0" xmlns="http://www.w3.org/2000/svg"
 width="512.000000pt" height="512.000000pt" viewBox="0 0 512.000000 512.000000"
 preserveAspectRatio="xMidYMid meet">

<g transform="translate(0.000000,512.000000) scale(0.100000,-0.100000)"
fill="#000000" stroke="none">
<path d="M2125 3950 c-107 -10 -183 -26 -285 -62 -71 -25 -175 -71 -189 -84
-5 -5 92 -265 98 -261 71 40 217 102 277 118 94 25 275 31 341 11 63 -19 124
-70 153 -127 34 -68 35 -199 3 -260 -57 -108 -188 -172 -442 -216 -63 -10
-117 -21 -119 -24 -6 -5 48 -248 56 -256 9 -8 192 16 270 36 l63 16 39 -31
c71 -56 153 -154 184 -220 24 -52 31 -81 34 -150 7 -148 -50 -250 -173 -311
-89 -44 -219 -52 -322 -21 -220 67 -393 294 -562 737 -27 72 -54 130 -59 130
-24 0 -252 -100 -252 -111 0 -21 107 -279 161 -386 156 -312 308 -488 504
-583 192 -92 424 -107 627 -39 321 107 461 440 324 774 -5 13 14 15 148 11
138 -3 269 7 334 25 l22 6 0 -546 0 -546 150 0 150 0 0 1035 0 1035 195 0 195
0 0 135 0 135 -485 0 -485 0 0 -135 0 -135 140 0 140 0 0 -349 c0 -324 -1
-350 -17 -355 -152 -46 -486 -54 -663 -15 -75 16 -75 16 -23 58 159 125 224
331 177 559 -40 197 -184 341 -385 386 -83 18 -224 26 -324 16z"/>
</g>
</svg>
