<?xml version="1.0" standalone="no"?>
<!DOCTYPE svg PUBLIC "-//W3C//DTD SVG 20010904//EN"
 "http://www.w3.org/TR/2001/REC-SVG-20010904/DTD/svg10.dtd">
<svg version="1.0" xmlns="http://www.w3.org/2000/svg"
 width="150.000000pt" height="150.000000pt" viewBox="0 0 150.000000 150.000000"
 preserveAspectRatio="xMidYMid meet">

<g transform="translate(0.000000,150.000000) scale(0.100000,-0.100000)"
fill="#000000" stroke="none">
<path d="M695 1471 c-26 -12 -87 -71 -175 -167 -530 -580 -520 -569 -520 -626
1 -43 46 -108 90 -130 25 -13 59 -18 117 -18 l82 0 3 -207 c3 -237 9 -257 83
-293 39 -19 63 -20 387 -20 342 0 345 0 379 23 63 42 69 67 69 295 l0 202 86
0 c124 0 184 35 200 119 14 69 1 92 -168 278 -89 98 -181 198 -205 223 -23 25
-91 99 -150 166 -59 66 -122 131 -139 143 -45 31 -91 35 -139 12z m141 -169
c34 -37 172 -188 308 -337 135 -148 246 -277 246 -285 0 -34 -22 -40 -141 -40
-94 0 -121 -3 -133 -16 -14 -13 -16 -50 -16 -248 0 -167 -3 -235 -12 -244 -9
-9 -98 -12 -340 -12 -313 0 -328 1 -338 19 -6 12 -10 110 -10 248 0 165 -3
232 -12 241 -8 8 -51 12 -129 12 -129 0 -151 9 -133 55 5 12 144 170 308 349
211 230 305 326 320 326 13 0 44 -26 82 -68z"/>
</g>
</svg>
