<?xml version="1.0" standalone="no"?>
<!DOCTYPE svg PUBLIC "-//W3C//DTD SVG 20010904//EN"
 "http://www.w3.org/TR/2001/REC-SVG-20010904/DTD/svg10.dtd">
<svg version="1.0" xmlns="http://www.w3.org/2000/svg"
 width="512.000000pt" height="512.000000pt" viewBox="0 0 512.000000 512.000000"
 preserveAspectRatio="xMidYMid meet">

<g transform="translate(0.000000,512.000000) scale(0.100000,-0.100000)"
stroke="none">
<path d="M1865 4903 c-46 -24 -66 -45 -86 -88 -18 -38 -19 -98 -19 -1285 0
-975 -3 -1250 -13 -1270 -7 -14 -28 -33 -47 -42 -32 -16 -75 -18 -455 -18
-401 0 -421 -1 -453 -20 -58 -36 -91 -114 -77 -182 6 -27 168 -194 873 -902
506 -507 880 -874 899 -882 41 -18 105 -18 146 0 19 8 393 376 899 882 861
863 867 869 873 916 9 60 -23 132 -74 165 -34 23 -35 23 -455 23 -381 0 -424
2 -456 18 -19 9 -40 28 -47 42 -10 20 -13 294 -13 1268 0 1095 -2 1247 -15
1279 -20 48 -41 71 -87 94 -35 18 -69 19 -700 19 -585 -1 -667 -3 -693 -17z"/>
</g>
</svg>
