<?xml version="1.0" standalone="no"?>
<!DOCTYPE svg PUBLIC "-//W3C//DTD SVG 20010904//EN"
 "http://www.w3.org/TR/2001/REC-SVG-20010904/DTD/svg10.dtd">
<svg version="1.0" xmlns="http://www.w3.org/2000/svg"
 width="512.000000pt" height="512.000000pt" viewBox="0 0 512.000000 512.000000"
 preserveAspectRatio="xMidYMid meet">

<g transform="translate(0.000000,512.000000) scale(0.100000,-0.100000)"
fill="#FFFFFF" stroke="none">
<path d="M750 5091 c-122 -41 -171 -64 -269 -127 -195 -127 -349 -329 -427
-556 -56 -167 -55 -120 -52 -1873 l3 -1610 27 -97 c99 -360 362 -641 703 -753
199 -65 282 -68 1825 -68 1298 0 1538 5 1688 32 208 39 401 142 556 296 135
134 231 301 284 493 l27 97 3 1425 c3 1561 4 1529 -55 1695 -70 194 -144 297
-402 559 -265 268 -362 349 -505 421 -208 104 -32 95 -1786 95 l-1535 -1 -85
-28z m322 -993 l3 -613 26 -67 c75 -192 225 -339 409 -400 58 -20 93 -23 345
-28 154 -3 566 -3 915 0 l635 5 67 26 c191 74 323 206 397 397 l26 67 3 593
c2 413 6 592 13 592 6 0 39 -14 73 -32 49 -26 114 -85 332 -302 247 -247 274
-278 307 -346 71 -145 67 -43 67 -1590 0 -1548 4 -1455 -68 -1600 -52 -106
-177 -231 -284 -283 -84 -40 -180 -67 -245 -67 l-42 0 -3 588 c-3 577 -3 588
-25 652 -64 187 -208 334 -401 409 l-67 26 -990 0 -990 0 -66 -23 c-186 -64
-333 -208 -408 -400 l-26 -67 -3 -592 -3 -593 -42 0 c-65 0 -161 27 -245 67
-107 52 -232 177 -284 283 -72 146 -68 31 -68 1785 0 1747 -4 1630 65 1770 99
202 319 351 522 354 l52 1 3 -612z m848 -48 l0 -640 -111 0 c-60 0 -131 5
-157 12 -64 16 -134 86 -150 150 -9 33 -12 205 -12 582 l0 536 215 0 215 0 0
-640z m1560 104 c0 -377 -3 -549 -12 -582 -16 -64 -86 -134 -150 -150 -33 -8
-188 -12 -507 -12 l-461 0 0 640 0 640 565 0 565 0 0 -536z m-12 -2456 c64
-16 134 -86 150 -150 9 -33 12 -203 12 -572 l0 -526 -1070 0 -1070 0 0 526 c0
369 3 539 12 572 15 60 87 135 144 150 59 15 1760 16 1822 0z"/>
</g>
</svg>
