<?xml version="1.0" standalone="no"?>
<!DOCTYPE svg PUBLIC "-//W3C//DTD SVG 20010904//EN"
 "http://www.w3.org/TR/2001/REC-SVG-20010904/DTD/svg10.dtd">
<svg version="1.0" xmlns="http://www.w3.org/2000/svg"
 width="512.000000pt" height="512.000000pt" viewBox="0 0 512.000000 512.000000"
 preserveAspectRatio="xMidYMid meet">

<g transform="translate(0.000000,512.000000) scale(0.100000,-0.100000)"
fill="#000000" stroke="none">
<path d="M2498 4666 c-109 -45 -180 -124 -212 -237 -15 -50 -16 -155 -14 -970
l3 -914 28 -60 c36 -78 104 -146 181 -182 l61 -28 914 -3 c815 -2 920 -1 970
14 115 33 199 110 241 221 20 54 20 68 18 991 l-3 937 -24 48 c-35 71 -104
142 -169 174 l-57 28 -940 2 -940 3 -57 -24z m1915 -162 c45 -23 66 -44 88
-86 18 -36 19 -74 19 -934 0 -877 0 -899 -20 -939 -22 -45 -57 -75 -109 -93
-25 -9 -267 -12 -913 -12 -770 0 -883 2 -916 15 -49 21 -81 52 -103 100 -18
38 -19 86 -19 921 0 648 3 890 12 915 18 52 47 87 92 109 40 20 59 20 939 20
808 0 901 -2 930 -16z"/>
<path d="M2885 4136 c-83 -27 -125 -47 -125 -56 0 -6 55 -55 111 -97 13 -10
27 -8 75 9 81 29 237 37 286 14 58 -28 100 -78 105 -129 11 -97 -62 -184 -175
-208 -55 -11 -178 -7 -231 8 -24 6 -24 5 14 -63 20 -38 44 -76 51 -84 15 -15
162 -21 221 -8 28 6 38 3 69 -24 47 -42 75 -99 81 -169 11 -117 -35 -211 -122
-250 -51 -23 -155 -25 -218 -3 -95 32 -204 161 -247 290 l-22 64 -44 -31 c-24
-16 -44 -34 -44 -40 0 -5 12 -33 26 -62 78 -153 190 -274 310 -333 77 -38 80
-39 193 -39 101 0 122 3 157 22 92 49 143 129 152 240 5 67 -11 171 -34 215
-17 33 -12 35 25 9 55 -40 113 -56 196 -56 57 0 89 5 112 18 l33 17 2 -291 3
-292 78 -49 77 -48 0 650 0 650 201 0 200 0 -57 70 -58 70 -388 0 c-213 0
-388 -3 -388 -6 0 -4 25 -35 56 -70 l56 -64 109 0 109 0 0 -220 0 -220 -42
-30 c-57 -42 -108 -55 -218 -54 -83 0 -103 3 -157 28 -90 41 -92 46 -40 99
115 114 98 308 -38 436 -30 29 -81 64 -112 79 -50 23 -73 27 -168 29 -94 3
-120 0 -180 -21z"/>
<path d="M1554 4170 c-55 -22 -69 -90 -29 -138 l25 -29 -88 -32 c-324 -116
-562 -426 -588 -766 -8 -100 -2 -129 32 -151 63 -42 134 0 134 79 1 69 26 188
55 262 64 163 192 302 347 380 101 50 125 56 108 26 -23 -45 -8 -96 37 -119
54 -29 85 -7 201 147 47 62 62 90 62 116 0 39 -12 54 -110 132 -118 94 -147
109 -186 93z"/>
<path d="M679 2831 c-110 -35 -189 -110 -229 -219 -20 -53 -20 -72 -18 -990
l3 -937 25 -50 c31 -64 111 -144 175 -175 l50 -25 937 -3 c923 -2 937 -2 991
18 110 41 188 126 221 239 14 47 16 140 16 704 l0 649 -29 29 c-31 31 -59 36
-94 17 -48 -25 -46 -7 -47 -684 0 -463 -3 -650 -12 -675 -18 -52 -48 -87 -93
-109 -40 -20 -62 -20 -939 -20 -860 0 -898 1 -934 19 -42 22 -63 43 -86 88
-14 29 -16 122 -16 929 0 877 0 899 20 939 22 45 57 75 109 93 25 9 212 12
678 12 l644 0 24 26 c34 37 33 78 -4 115 l-29 29 -654 -1 c-599 0 -658 -2
-709 -18z"/>
<path d="M1545 2264 c-157 -25 -303 -111 -396 -234 -173 -228 -219 -625 -104
-878 35 -77 126 -163 200 -191 82 -31 185 -26 268 13 118 56 237 199 330 395
l44 92 7 -123 c7 -127 31 -305 47 -345 8 -22 13 -23 118 -23 l109 0 -14 47
c-8 27 -24 100 -36 163 -19 102 -22 166 -27 574 l-6 460 -30 8 c-119 32 -415
57 -510 42z m252 -205 l63 -11 0 -79 c0 -141 -44 -298 -135 -479 -85 -171
-202 -306 -286 -332 -63 -18 -115 4 -157 66 -53 79 -67 143 -65 286 3 302 110
494 302 546 58 16 196 17 278 3z"/>
<path d="M4106 2057 c-19 -19 -24 -38 -29 -105 -16 -206 -89 -357 -241 -499
-70 -66 -187 -136 -265 -158 -23 -7 -23 -7 -7 16 45 64 -10 150 -85 134 -22
-5 -50 -33 -110 -106 -129 -160 -131 -183 -21 -272 177 -142 192 -148 243 -98
37 37 38 79 4 119 l-25 30 69 22 c253 81 475 305 563 567 31 92 55 262 44 306
-16 66 -94 90 -140 44z"/>
</g>
</svg>
