<?xml version="1.0" standalone="no"?>
<!DOCTYPE svg PUBLIC "-//W3C//DTD SVG 20010904//EN"
 "http://www.w3.org/TR/2001/REC-SVG-20010904/DTD/svg10.dtd">
<svg version="1.0" xmlns="http://www.w3.org/2000/svg"
 width="512.000000pt" height="512.000000pt" viewBox="0 0 512.000000 512.000000"
 preserveAspectRatio="xMidYMid meet">

<g transform="translate(0.000000,512.000000) scale(0.100000,-0.100000)"
fill="#FFFFFF" stroke="none">
<path d="M2490 5104 c-38 -17 -75 -48 -93 -79 -8 -13 -14 -121 -17 -328 l-5
-308 -228 171 c-125 94 -239 175 -253 180 -69 27 -172 -1 -212 -57 -22 -32
-44 -104 -38 -124 2 -8 7 -26 10 -41 4 -15 20 -43 36 -62 17 -18 179 -145 360
-281 l330 -247 0 -520 c0 -473 -1 -520 -16 -514 -9 3 -211 123 -450 266 -409
246 -434 262 -439 293 -3 18 -23 209 -45 425 -43 423 -49 448 -107 490 -114
81 -275 14 -290 -120 -3 -24 7 -153 21 -288 14 -134 26 -257 26 -272 0 -27 -7
-24 -249 123 -264 159 -296 172 -365 149 -41 -13 -91 -52 -108 -83 -36 -67
-25 -158 25 -210 18 -19 139 -98 271 -177 161 -96 234 -145 225 -150 -8 -5
-126 -54 -264 -110 -152 -62 -261 -112 -279 -128 -119 -111 -39 -312 125 -312
40 0 117 29 582 219 l246 101 455 -273 c250 -149 455 -274 455 -277 0 -3 -205
-128 -455 -277 l-455 -273 -246 101 c-465 190 -542 219 -582 219 -103 0 -181
-78 -181 -180 0 -52 20 -98 56 -132 18 -16 127 -66 279 -128 138 -56 256 -105
264 -110 9 -5 -62 -53 -220 -148 -129 -77 -246 -149 -260 -161 -56 -44 -79
-154 -45 -219 20 -39 67 -77 112 -92 70 -23 103 -10 366 149 245 148 248 150
248 122 0 -16 -11 -136 -25 -267 -30 -288 -30 -304 -5 -354 59 -115 225 -130
304 -28 34 45 38 71 81 508 20 201 38 375 40 387 4 16 115 87 438 282 238 143
441 263 450 267 16 6 17 -31 17 -514 l0 -520 -330 -247 c-181 -136 -343 -263
-360 -281 -16 -19 -32 -47 -36 -62 -3 -15 -8 -33 -10 -41 -6 -20 16 -92 38
-124 40 -56 143 -84 212 -57 14 5 128 86 253 180 l228 171 5 -310 c5 -294 6
-311 26 -338 82 -111 241 -107 308 7 20 33 21 55 26 337 l5 302 200 -151 c272
-205 277 -208 342 -208 64 0 99 16 141 64 49 56 56 158 15 215 -11 14 -173
142 -361 284 l-342 257 0 520 c0 286 3 520 6 520 6 0 873 -518 886 -529 5 -4
26 -184 48 -401 42 -423 49 -467 81 -512 63 -88 220 -89 288 -2 44 56 44 79
13 384 -17 157 -29 286 -28 287 1 1 114 -65 251 -147 138 -83 265 -153 283
-156 149 -28 265 139 187 272 -22 38 -53 60 -263 185 -130 78 -243 147 -250
152 -18 14 -15 15 263 127 127 51 245 104 264 119 86 67 96 187 23 264 -39 41
-74 57 -129 57 -40 0 -121 -29 -442 -160 l-394 -160 -453 273 c-249 149 -453
274 -453 277 0 3 204 128 453 277 l454 273 393 -160 c422 -172 445 -178 517
-141 46 23 67 46 87 94 30 73 6 163 -56 209 -19 14 -137 67 -264 118 -281 113
-281 113 -263 127 7 5 120 74 250 152 265 158 279 172 285 270 3 44 -1 64 -19
96 -40 68 -117 105 -190 91 -18 -3 -145 -73 -283 -156 -137 -82 -250 -148
-251 -147 -1 1 11 130 28 287 23 223 27 293 19 321 -43 145 -243 176 -327 50
-24 -37 -28 -61 -70 -467 -24 -235 -47 -431 -51 -435 -14 -11 -881 -529 -887
-529 -3 0 -6 234 -6 520 l0 520 342 257 c188 142 350 270 361 284 41 57 34
159 -15 215 -42 48 -77 64 -141 64 -65 0 -70 -3 -342 -208 l-200 -151 -5 302
c-4 255 -8 307 -21 332 -45 81 -145 116 -229 79z"/>
</g>
</svg>
