<?xml version="1.0" standalone="no"?>
<!DOCTYPE svg PUBLIC "-//W3C//DTD SVG 20010904//EN"
 "http://www.w3.org/TR/2001/REC-SVG-20010904/DTD/svg10.dtd">
<svg version="1.0" xmlns="http://www.w3.org/2000/svg"
 width="512.000000pt" height="512.000000pt" viewBox="0 0 512.000000 512.000000"
 preserveAspectRatio="xMidYMid meet">

<g transform="translate(0.000000,512.000000) scale(0.100000,-0.100000)"
fill="#000000" stroke="none">
<path d="M770 3187 c-47 -15 -103 -74 -118 -123 -19 -65 -16 -544 4 -641 30
-148 114 -283 227 -368 77 -59 113 -77 207 -106 l75 -24 1400 0 1400 0 82 28
c193 65 336 208 400 402 26 78 27 87 31 377 l4 298 -25 53 c-13 30 -37 63 -53
74 -89 62 -207 56 -285 -14 -62 -56 -69 -94 -69 -390 0 -214 -3 -259 -16 -286
-23 -45 -53 -76 -96 -98 -36 -18 -80 -19 -1378 -19 -1298 0 -1342 1 -1378 19
-43 22 -73 53 -96 98 -13 27 -16 71 -16 277 0 144 -5 267 -11 298 -26 120
-158 187 -289 145z"/>
</g>
</svg>
